<svg width="97" height="45" viewBox="0 0 97 45" fill="none" xmlns="http://www.w3.org/2000/svg">
<rect x="0.5" y="0.5" width="96" height="44" rx="4.5" fill="white" stroke="#090231"/>
<path d="M33.4725 19.2201H31.927V27.1186H33.4725V19.2201Z" fill="#2A3362"/>
<path d="M39.4629 24.3175C39.4629 25.4036 38.7525 25.8991 37.8118 25.8991C36.871 25.8991 36.2374 25.4132 36.2374 24.3746V21.5544H34.6919V24.7272C34.6919 26.3088 35.6903 27.233 37.351 27.233C38.3974 27.233 38.9733 26.8519 39.3669 26.4231H39.4533L39.5877 27.1282H41.0085V21.5544H39.4629V24.3175Z" fill="#2A3362"/>
<path d="M54.6302 26.0229C53.4974 26.0229 52.8639 25.5084 52.7583 24.7653H57.6637C57.6829 24.6128 57.7021 24.4509 57.6925 24.2984C57.6829 22.2976 56.1566 21.4496 54.5246 21.4496C52.6335 21.4496 51.2031 22.5739 51.2031 24.3842C51.2031 26.1087 52.5663 27.233 54.6206 27.233C56.3389 27.233 57.4813 26.4803 57.7117 25.3179H56.1853C56.0126 25.7752 55.4654 26.0229 54.6302 26.0229ZM54.5342 22.6596C55.523 22.6596 56.0894 23.0979 56.1853 23.7077H52.7967C52.9407 23.117 53.5166 22.6596 54.5342 22.6596Z" fill="#2A3362"/>
<path d="M60.3325 22.3548H60.2365L60.0925 21.5544H58.6909V27.1186H60.2365V24.7272C60.2365 23.6505 60.8604 23.0503 62.0316 23.0503C62.2428 23.0503 62.454 23.0693 62.6652 23.1074V21.5544H62.454C61.4076 21.5544 60.774 21.7736 60.3325 22.3548Z" fill="#2A3362"/>
<path d="M70.2488 25.3846H70.1624L68.8377 21.907H67.2441L65.9482 25.3751H65.8426L64.6138 21.5544H63.0779L64.969 27.1186H66.649L67.9929 23.5743H68.0889L69.4137 27.1186H71.1032L72.9943 21.5544H71.4584L70.2488 25.3846Z" fill="#2A3362"/>
<path d="M79.1477 25.4989V23.641C79.1477 22.1261 77.8614 21.4496 76.2582 21.4496C74.5591 21.4496 73.4935 22.25 73.3495 23.4504H74.8951C75.0103 22.9264 75.4518 22.6406 76.2582 22.6406C77.0646 22.6406 77.6022 22.9455 77.6022 23.5553V23.6982L75.0775 23.8887C73.9159 23.9745 73.0615 24.489 73.0615 25.5847C73.0615 26.7089 74.0407 27.2425 75.471 27.2425C76.6326 27.2425 77.3334 26.9186 77.7654 26.4422H77.8422C78.0821 26.9852 78.5813 27.1377 79.1093 27.1377H79.7621V26.0039H79.6181C79.3013 25.9848 79.1477 25.8324 79.1477 25.4989ZM77.6022 24.9082C77.6022 25.7848 76.5462 26.0801 75.6438 26.0801C75.0295 26.0801 74.6263 25.9277 74.6263 25.4989C74.6263 25.1178 74.9719 24.9368 75.4902 24.8891L77.6118 24.7367L77.6022 24.9082Z" fill="#2A3362"/>
<path d="M84.8692 21.5544L83.0645 25.5847H82.9685L81.1349 21.5544H79.4646L82.0757 27.1186H83.9284L86.5299 21.5544H84.8692Z" fill="#2A3362"/>
<path d="M91.4737 25.3179C91.2817 25.7752 90.7345 26.0229 89.9089 26.0229C88.7762 26.0229 88.1426 25.5084 88.037 24.7653H92.9424C92.9616 24.6128 92.9808 24.4509 92.9712 24.2984C92.9616 22.2976 91.4353 21.4496 89.8033 21.4496C87.9122 21.4496 86.4915 22.5739 86.4915 24.3842C86.4915 26.1087 87.8546 27.233 89.9089 27.233C91.6273 27.233 92.7696 26.4803 93 25.3179H91.4737ZM89.8033 22.6596C90.7921 22.6596 91.3585 23.0979 91.4545 23.7077H88.0658C88.2098 23.117 88.7762 22.6596 89.8033 22.6596Z" fill="#2A3362"/>
<path d="M29.4215 21.1447C29.4215 20.6588 29.7671 20.4492 30.2183 20.4492C30.4294 20.4492 30.631 20.4778 30.8326 20.535L31.0918 19.4202C30.7174 19.2868 30.3238 19.2201 29.9303 19.2201C28.7879 19.2201 27.8663 19.8204 27.8663 21.0685V21.5544H26.532V22.774H27.8663V27.1186H29.4215V22.774H31.1686V21.5544H29.4215V21.1447Z" fill="#2A3362"/>
<path d="M44.4354 19.9919H42.9954L42.9186 21.564H41.6995V22.7835H42.8898V25.5275C42.8898 26.4612 43.3698 27.2425 44.8098 27.2425C45.1841 27.2425 45.5585 27.2044 45.9233 27.1186V25.9467C45.7121 25.9944 45.5009 26.023 45.2801 26.023C44.5122 26.023 44.4354 25.5847 44.4354 25.2512V22.774H45.9713V21.5544H44.4354V19.9919Z" fill="#2A3362"/>
<path d="M49.2927 19.9919H47.8624L47.7856 21.564H46.5664V22.7835H47.7568V25.5275C47.7568 26.4612 48.2367 27.2425 49.6767 27.2425C50.0511 27.2425 50.4159 27.1949 50.7807 27.1186V25.9467C50.5695 25.9944 50.3583 26.023 50.1375 26.023C49.3695 26.023 49.2927 25.5847 49.2927 25.2512V22.774H50.8287V21.5544H49.2831V19.9919H49.2927Z" fill="#2A3362"/>
<path d="M5 19.0105C5 18.1149 5.25919 17.3527 5.81597 16.8096L6.77594 17.7624C5.71037 18.82 6.64154 22.107 9.68463 25.1273C12.7277 28.1476 16.0396 29.0718 17.1052 28.0142L18.0651 28.967C16.2604 30.7582 12.1613 29.4815 8.72467 26.0801C6.34395 23.7077 5 21.0304 5 19.0105Z" fill="#009A46"/>
<path d="M11.0574 29.7864C10.155 29.7864 9.38702 29.5292 8.83984 28.9766L9.79981 28.0238C10.8654 29.0814 14.1773 28.1572 17.2203 25.1369C20.2634 22.1166 21.1946 18.8295 20.129 17.7719L21.089 16.8191C22.8937 18.6103 21.6074 22.6787 18.1803 26.0896C15.79 28.4525 13.0829 29.7864 11.0574 29.7864Z" fill="#FF5805"/>
<path d="M18.4876 24.7272C17.902 23.0598 16.7117 21.2781 15.1373 19.7156C11.7006 16.3046 7.60158 15.0374 5.79684 16.8191C5.67205 16.9525 5.78724 17.2669 6.04643 17.5242C6.30562 17.7814 6.63201 17.8958 6.75681 17.7719C7.82237 16.7143 11.1343 17.6385 14.1773 20.6588C15.6173 22.088 16.6925 23.6886 17.2108 25.1655C17.662 26.4612 17.6236 27.5093 17.0956 28.0333C16.9708 28.1572 17.0764 28.4716 17.3452 28.7384C17.614 29.0051 17.9308 29.1099 18.0556 28.9861C18.9772 28.0619 19.1308 26.547 18.4876 24.7272Z" fill="#F5AFCB"/>
<path d="M21.0793 16.8191C20.1578 15.9045 18.6314 15.752 16.7979 16.3809C15.1179 16.962 13.3228 18.1435 11.7485 19.706C8.31178 23.117 7.03503 27.1853 8.83976 28.9766C8.96456 29.1004 9.29094 28.9956 9.55014 28.7288C9.80933 28.4621 9.92452 28.1476 9.79973 28.0238C8.73416 26.9662 9.66533 23.6791 12.7084 20.6588C14.1484 19.2297 15.7611 18.1625 17.2395 17.648C18.545 17.2002 19.601 17.2384 20.129 17.7624C20.2538 17.8862 20.5705 17.7814 20.8393 17.5147C21.1081 17.2479 21.2137 16.9525 21.0793 16.8191Z" fill="#FF9B00"/>
</svg>
