<svg width="29" height="34" viewBox="0 0 29 34" fill="none" xmlns="http://www.w3.org/2000/svg">
<path d="M14.2598 0C6.3884 0 0 7.42727 0 16.5787C0 25.7302 6.3884 33.1575 14.2598 33.1575C22.1313 33.1575 28.5197 25.7302 28.5197 16.5787C28.5197 7.42727 22.1313 0 14.2598 0ZM19.4076 10.5109C20.9334 10.5109 22.1598 11.9367 22.1598 13.7106C22.1598 15.4845 20.9334 16.9103 19.4076 16.9103C17.8818 16.9103 16.6555 15.4845 16.6555 13.7106C16.6412 11.9367 17.8818 10.5109 19.4076 10.5109ZM10.8517 7.89148C12.7055 7.89148 14.2171 9.64882 14.2171 11.8041C14.2171 13.9593 12.7055 15.7166 10.8517 15.7166C8.99796 15.7166 7.48641 13.9593 7.48641 11.8041C7.48641 9.63224 8.9837 7.89148 10.8517 7.89148ZM10.8517 23.0279V29.2449C7.42937 28.0015 4.72 24.9344 3.52218 21.0218C5.01946 19.165 8.75554 18.22 10.8517 18.22C11.6075 18.22 12.5629 18.3527 13.5611 18.5848C11.2225 20.0271 10.8517 21.9337 10.8517 23.0279ZM14.2598 29.8417C13.8748 29.8417 13.5041 29.8251 13.1333 29.7754V23.0279C13.1333 20.6737 17.3257 19.4966 19.4076 19.4966C20.9334 19.4966 23.5715 20.1432 24.8834 21.4031C23.215 26.327 19.0939 29.8417 14.2598 29.8417Z" fill="black"/>
</svg>
