<svg width="24" height="24" viewBox="0 0 24 24" fill="none" xmlns="http://www.w3.org/2000/svg">
<path d="M23.1198 7.2838C23.1068 6.33404 22.9242 5.39372 22.5801 4.5049C22.2817 3.75519 21.826 3.07432 21.2421 2.50579C20.6581 1.93726 19.9588 1.49357 19.1888 1.20308C18.2876 0.873721 17.3356 0.695631 16.3732 0.676393C15.1341 0.62247 14.7413 0.607422 11.596 0.607422C8.45064 0.607422 8.04749 0.607422 6.81744 0.676393C5.8555 0.695772 4.9039 0.87386 4.00314 1.20308C3.23298 1.49337 2.53354 1.93699 1.94957 2.50554C1.36561 3.0741 0.909965 3.75507 0.611805 4.5049C0.27284 5.38163 0.0903194 6.30832 0.0721286 7.24493C0.0167441 8.45254 0 8.83502 0 11.8973C0 14.9596 -9.59642e-09 15.3509 0.0721286 16.5497C0.0914487 17.4877 0.273058 18.4132 0.611805 19.2923C0.910466 20.0419 1.36645 20.7226 1.95061 21.2909C2.53477 21.8592 3.23428 22.3026 4.00442 22.5928C4.90273 22.9354 5.85449 23.1263 6.81873 23.1571C8.05908 23.2111 8.45192 23.2274 11.5972 23.2274C14.7426 23.2274 15.1457 23.2274 16.3758 23.1571C17.3381 23.1387 18.2902 22.961 19.1914 22.6317C19.9612 22.3409 20.6603 21.8971 21.2442 21.3286C21.8281 20.7601 22.284 20.0794 22.5827 19.3299C22.9214 18.4521 23.103 17.5266 23.1224 16.5873C23.1777 15.381 23.1945 14.9985 23.1945 11.9349C23.1919 8.87264 23.1919 8.48389 23.1198 7.2838ZM11.5882 17.6884C8.29865 17.6884 5.63376 15.0938 5.63376 11.8911C5.63376 8.6883 8.29865 6.09374 11.5882 6.09374C13.1675 6.09374 14.682 6.70453 15.7987 7.79173C16.9154 8.87894 17.5427 10.3535 17.5427 11.8911C17.5427 13.4286 16.9154 14.9032 15.7987 15.9904C14.682 17.0776 13.1675 17.6884 11.5882 17.6884ZM17.7797 7.23113C17.5973 7.2313 17.4167 7.19644 17.2481 7.12857C17.0796 7.06069 16.9265 6.96112 16.7975 6.83556C16.6686 6.71 16.5663 6.56091 16.4966 6.39682C16.4268 6.23273 16.391 6.05687 16.3912 5.8793C16.3912 5.70186 16.4271 5.52616 16.4969 5.36222C16.5666 5.19829 16.6688 5.04933 16.7977 4.92386C16.9266 4.79839 17.0796 4.69886 17.2479 4.63096C17.4163 4.56305 17.5968 4.5281 17.7791 4.5281C17.9613 4.5281 18.1418 4.56305 18.3101 4.63096C18.4785 4.69886 18.6315 4.79839 18.7604 4.92386C18.8893 5.04933 18.9915 5.19829 19.0612 5.36222C19.131 5.52616 19.1669 5.70186 19.1669 5.8793C19.1669 6.6267 18.5461 7.23113 17.7797 7.23113Z" fill="white"/>
<path d="M11.588 15.6571C13.7242 15.6571 15.4559 13.9711 15.4559 11.8913C15.4559 9.8115 13.7242 8.12549 11.588 8.12549C9.45187 8.12549 7.72015 9.8115 7.72015 11.8913C7.72015 13.9711 9.45187 15.6571 11.588 15.6571Z" fill="white"/>
</svg>
