<svg width="97" height="47" viewBox="0 0 97 47" fill="none" xmlns="http://www.w3.org/2000/svg">
<rect x="0.5" y="0.5" width="96" height="44" rx="4.5" fill="white" stroke="#090231"/>
<path d="M55.8025 11.1395H42.1614V35.6782H55.8025V11.1395Z" fill="#FF5F00"/>
<path d="M43.0276 23.4089C43.0254 21.0456 43.5604 18.7128 44.592 16.5872C45.6236 14.4615 47.1248 12.5986 48.982 11.1395C46.6822 9.32996 43.9201 8.20461 41.0116 7.89211C38.1031 7.57962 35.1654 8.09257 32.5343 9.37236C29.9033 10.6522 27.685 12.6472 26.133 15.1293C24.5811 17.6115 23.7581 20.4806 23.7581 23.4089C23.7581 26.3371 24.5811 29.2063 26.133 31.6884C27.685 34.1706 29.9033 36.1656 32.5343 37.4454C35.1654 38.7252 38.1031 39.2381 41.0116 38.9256C43.9201 38.6131 46.6822 37.4878 48.982 35.6782C47.1248 34.2191 45.6236 32.3563 44.592 30.2306C43.5604 28.1049 43.0254 25.7721 43.0276 23.4089Z" fill="#EB001B"/>
<path d="M74.2051 23.4089C74.2052 26.3371 73.3823 29.2062 71.8304 31.6884C70.2785 34.1705 68.0603 36.1655 65.4293 37.4453C62.7983 38.7251 59.8606 39.2381 56.9522 38.9256C54.0437 38.6131 51.2817 37.4878 48.9819 35.6782C50.8375 34.2177 52.3375 32.3545 53.3689 30.2291C54.4004 28.1038 54.9363 25.7717 54.9363 23.4089C54.9363 21.046 54.4004 18.714 53.3689 16.5886C52.3375 14.4632 50.8375 12.6001 48.9819 11.1395C51.2817 9.32995 54.0437 8.2046 56.9522 7.89211C59.8606 7.57962 62.7983 8.09259 65.4293 9.3724C68.0603 10.6522 70.2785 12.6472 71.8304 15.1294C73.3823 17.6115 74.2052 20.4807 74.2051 23.4089Z" fill="#F79E1B"/>
<path d="M72.7178 33.0792V32.5768H72.9202V32.4745H72.4048V32.5768H72.6072V33.0792H72.7178ZM73.7184 33.0792V32.4735H73.5604L73.3787 32.8901L73.1969 32.4735H73.0389V33.0792H73.1504V32.6223L73.3208 33.0162H73.4365L73.6069 32.6213V33.0792H73.7184Z" fill="#F79E1B"/>
</svg>
