<svg width="90" height="66" viewBox="0 0 90 66" fill="none" xmlns="http://www.w3.org/2000/svg">
<path d="M21.6608 30.3512C21.6608 37.4792 25.5416 41.756 33.3032 43.1816C34.8872 46.1912 35.6792 49.2008 35.6792 52.2104C35.6792 56.012 34.016 59.2592 30.6896 61.952C27.3632 64.4864 23.324 65.7536 18.572 65.7536C13.5032 65.7536 9.1472 63.8528 5.504 60.0512C1.8608 56.2496 0.0392006 50.3888 0.0392006 42.4688C0.0392006 32.0144 3.2864 22.4312 9.7808 13.7192C16.4336 5.00718 24.2744 0.651176 33.3032 0.651176C38.2136 0.651176 40.6688 3.66078 40.6688 9.67997C40.6688 11.264 40.5896 12.452 40.4312 13.244H39.2432C34.1744 13.244 29.9768 14.9864 26.6504 18.4712C23.324 21.956 21.6608 25.916 21.6608 30.3512ZM70.6194 30.3512C70.6194 37.4792 74.5002 41.756 82.2618 43.1816C83.8458 46.1912 84.6378 49.2008 84.6378 52.2104C84.6378 56.012 82.9746 59.2592 79.6482 61.952C76.3218 64.4864 72.2826 65.7536 67.5306 65.7536C62.4618 65.7536 58.1058 63.8528 54.4626 60.0512C50.8194 56.2496 48.9978 50.3888 48.9978 42.4688C48.9978 32.0144 52.245 22.4312 58.7394 13.7192C65.3922 5.00718 73.233 0.651176 82.2618 0.651176C87.1722 0.651176 89.6274 3.66078 89.6274 9.67997C89.6274 11.264 89.5482 12.452 89.3898 13.244H88.2018C83.133 13.244 78.9354 14.9864 75.609 18.4712C72.2826 21.956 70.6194 25.916 70.6194 30.3512Z" fill="#B0B3BA"/>
</svg>
