<svg width="29" height="28" viewBox="0 0 29 28" fill="none" xmlns="http://www.w3.org/2000/svg">
<path d="M14.6635 0C6.92159 0 0.644226 6.11168 0.644226 13.6492C0.644226 21.1868 6.92159 27.2984 14.6635 27.2984C22.4053 27.2984 28.6827 21.1868 28.6827 13.6492C28.6827 6.11168 22.4053 0 14.6635 0ZM21.4008 10.2887C21.4102 10.4319 21.4102 10.5812 21.4102 10.7274C21.4102 15.2 17.9117 20.352 11.5185 20.352C9.54706 20.352 7.71956 19.7944 6.17994 18.8347C6.46158 18.8652 6.7307 18.8774 7.0186 18.8774C8.64583 18.8774 10.1416 18.3411 11.3339 17.4332C9.8068 17.4028 8.52378 16.4278 8.08568 15.0873C8.62079 15.1634 9.1027 15.1634 9.65346 15.0263C8.86715 14.8708 8.1604 14.455 7.65327 13.8496C7.14614 13.2443 6.86991 12.4866 6.87152 11.7054V11.6628C7.33152 11.9156 7.87289 12.071 8.43929 12.0924C7.96315 11.7834 7.57266 11.3648 7.30246 10.8738C7.03225 10.3827 6.89068 9.8343 6.89029 9.27721C6.89029 8.64654 7.05928 8.07071 7.36282 7.57105C8.23559 8.6171 9.32467 9.47263 10.5593 10.082C11.7939 10.6915 13.1464 11.0411 14.5289 11.1083C14.0376 8.80801 15.8025 6.94648 17.9242 6.94648C18.9256 6.94648 19.8268 7.35474 20.462 8.01283C21.2475 7.86963 21.9985 7.58324 22.6682 7.19936C22.4085 7.98236 21.864 8.64349 21.1411 9.06089C21.8421 8.98777 22.518 8.79887 23.1438 8.53381C22.6713 9.21018 22.0799 9.81038 21.4008 10.2887Z" fill="white"/>
</svg>
