<svg width="97" height="45" viewBox="0 0 97 45" fill="none" xmlns="http://www.w3.org/2000/svg">
<rect x="0.5" y="0.5" width="96" height="44" rx="4.5" fill="#FFFEFE" stroke="black"/>
<path d="M58.9882 12C54.302 12 50.1141 14.3853 50.1141 18.7923C50.1141 23.8464 57.5414 24.1954 57.5414 26.7344C57.5414 27.8035 56.2938 28.7605 54.163 28.7605C51.139 28.7605 48.8788 27.4233 48.8788 27.4233L47.9117 31.8705C47.9117 31.8705 50.5154 33 53.9722 33C59.0957 33 63.1274 30.4976 63.1274 26.0152C63.1274 20.6747 55.6691 20.336 55.6691 17.9794C55.6691 17.1419 56.6933 16.2243 58.818 16.2243C61.2153 16.2243 63.1712 17.1968 63.1712 17.1968L64.1177 12.9016C64.1177 12.9016 61.9895 12 58.9882 12ZM16.1135 12.3242L16 12.9725C16 12.9725 17.9715 13.3268 19.7472 14.0336C22.0335 14.8442 22.1964 15.316 22.5814 16.7815L26.7774 32.6657H32.402L41.0672 12.3242H35.4555L29.8875 26.1545L27.6155 14.4313C27.4071 13.0895 26.3517 12.3242 25.0598 12.3242H16.1135ZM43.3238 12.3242L38.9215 32.6657H44.2728L48.6596 12.3242H43.3238ZM73.1697 12.3242C71.8793 12.3242 71.1957 13.0026 70.694 14.1881L62.854 32.6657H68.4658L69.5515 29.5861H76.3882L77.0485 32.6657H82L77.6803 12.3242H73.1697ZM73.8996 17.8198L75.563 25.453H71.1066L73.8996 17.8198Z" fill="#1434CB"/>
</svg>
